<?xml version="1.0" encoding="utf-8"?>
<!-- Generator: Adobe Illustrator 22.1.0, SVG Export Plug-In . SVG Version: 6.00 Build 0)  -->
<svg version="1.1" id="Layer_1" xmlns="http://www.w3.org/2000/svg" xmlns:xlink="http://www.w3.org/1999/xlink" x="0px" y="0px"
	 viewBox="0 0 200 200" style="enable-background:new 0 0 200 200;" xml:space="preserve">
<style type="text/css">
	.st0{fill:none;stroke:#0C8AE3;stroke-width:10;stroke-miterlimit:10;}
	.st1{fill:#9AD3EF;stroke:#9AD3EF;stroke-width:4;stroke-miterlimit:10;}
	.st2{fill:none;stroke:#0C8AE3;stroke-width:5;stroke-linecap:round;stroke-miterlimit:10;}
	.st3{fill:#0C8AE3;}
	.st4{fill:none;stroke:#0C8AE3;stroke-width:17;stroke-linecap:round;stroke-miterlimit:10;}
</style>
<g>
	<line class="st0" x1="0" y1="5.5" x2="200" y2="5.5"/>
</g>
<rect x="10" y="80" class="st1" width="180" height="110"/>
<line class="st2" x1="150" y1="31" x2="182" y2="31"/>
<line class="st2" x1="150" y1="43.2" x2="182" y2="43.2"/>
<line class="st2" x1="150" y1="56.3" x2="182" y2="56.3"/>
<g>
	<g>
		<path class="st3" d="M20.1,26.6L14.7,36c-0.2,0.4-0.1,0.7,0.1,1.1l10.5,18.5c0.2,0.4,0.5,0.5,0.9,0.5c4.4,0.1,7.9,0,12.2,0
			c0.5,0,0.7-0.3,0.9-0.7c2.9-4.9,5.2-9,8.1-13.9c0.1-0.1,0.6-0.9,0.7-1.2c0.9,1.5,1.8,3.1,2.6,4.5c0.1,0.1,0,0.4-0.1,0.6
			c-2.9,5-5.7,9.7-8.7,14.8c-0.3,0.4-0.5,0.4-0.9,0.4h-16c-1.7,0.1-2.6-0.5-3.5-2.1L9.5,37.1c-0.3-0.5-0.4-0.9-0.1-1.3l5-8.5
			c0.2-0.4,0.5-0.5,0.9-0.5L20.1,26.6L20.1,26.6z"/>
		<path class="st3" d="M32.3,62.9h10.3c0.4,0,0.7-0.1,0.9-0.5l9.9-16.9c0.3-0.4,0.3-0.8,0.1-1.1L46,31.7c-0.3-0.5-0.7-0.6-1.1-0.6
			H29.7c-0.3,0-0.7,0-1.1,0l2.5-4.3c0.1-0.1,0.4-0.2,0.5-0.2H48c0.3,0,0.7,0.3,0.8,0.5l10,17.5c0.2,0.4,0.2,0.7,0,1L46.2,67
			c-0.1,0.2-0.5,0.5-0.7,0.5H35.3c-0.3,0-0.5-0.1-0.7-0.3L32.3,62.9z"/>
		<path class="st3" d="M32.3,53.6h-5c-0.2,0-0.5-0.2-0.5-0.3l-9.3-16.4c-0.1-0.2-0.1-0.6,0-0.8l9.3-16c0.1-0.2,0.5-0.4,0.7-0.4h24.7
			c0.3,0,0.6,0.2,0.7,0.4l5.9,10.3c0.1,0.2,0.2,0.5,0.1,0.7c-0.9,1.5-1.7,2.8-2.6,4.4l-6.1-10.7c-0.3-0.5-0.5-0.6-1-0.6H30.5
			c-0.5,0-0.7,0.1-0.9,0.5l-6.7,11.4c-0.3,0.5-0.2,0.7,0.1,1.1L32.3,53.6z"/>
	</g>
</g>
<line class="st4" x1="24.5" y1="136.5" x2="174.5" y2="136.5"/>
</svg>
