<?xml version="1.0" encoding="utf-8"?>
<!-- Generator: Adobe Illustrator 22.1.0, SVG Export Plug-In . SVG Version: 6.00 Build 0)  -->
<svg version="1.1" id="Layer_1" xmlns="http://www.w3.org/2000/svg" xmlns:xlink="http://www.w3.org/1999/xlink" x="0px" y="0px"
	 viewBox="0 0 1320 800" style="enable-background:new 0 0 1320 800;" xml:space="preserve">
<style type="text/css">
	.st0{fill:#FFA494;}
	.st1{fill:#FF6247;}
</style>
<g>
	<path class="st0" d="M1328.8,485.7c8.6,28.4,13.2,58.6,13.2,89.8c0,172.6-141,312.5-315,312.5c-69.3,0-133.3-22.2-185.3-59.8
		C786.1,917,687,976,574,976c-126,0-234.7-73.4-285.1-179.4c-24.6,6.1-50.4,9.4-76.9,9.4c-174,0-315-139.9-315-312.5S-1,197,173,197
		c126,0,132.9,160.4,250,169c68,5,119.8-138.4,205-120c88,19,68.3,177,131.3,164.8C862,390.7,881,312,994,312
		c42.8,0,137.2,17.9,176,7c41-11.6,43.8-89,89.9-89c76.3,0,138.1,61.3,138.1,137C1398,417.8,1370.1,462.1,1328.8,485.7z"/>
</g>
<path class="st1" d="M1424,652c0,120.9-95.4,219-213,219c-27.1,0-53.1-5.2-77-14.8c-0.1,145.7-127.5,263.8-284.5,263.8
	c-85,0-161.4-34.6-213.5-89.5C584.4,1102.3,500,1149,404.5,1149c-118.7,0-220.4-72.3-263.1-175.1C102,993.1,57.1,1004,9.5,1004
	C-147.6,1004-275,885.8-275,740c0-145,126-262.8,282-264c39-70,117.7-117.9,208.5-117.9C345,358.2,425,548,449.7,586.6
	c21.6,33.7,76.4,20.7,108.7,41.4c11.2-47.9,59.8-84,118.1-84c45.9,0,70.5,40.3,106.2,55.3c20.2,8.5,43.8-7.3,66.8-7.3
	c4.5,0,9,0.1,13.5,0.3c14.5-31.4,66.8-67.3,105-67.3c26.1,0,30.2,24.2,47.2,40.7c32.6-78.1,108-132.7,195.8-132.7
	C1328.6,433,1424,531.1,1424,652z"/>
</svg>
