<?xml version="1.0" encoding="utf-8"?>
<!-- Generator: Adobe Illustrator 22.1.0, SVG Export Plug-In . SVG Version: 6.00 Build 0)  -->
<svg version="1.1" xmlns="http://www.w3.org/2000/svg" xmlns:xlink="http://www.w3.org/1999/xlink" x="0px" y="0px"
	 viewBox="0 0 200 200" style="enable-background:new 0 0 200 200;" xml:space="preserve">
<style type="text/css">
	.st0{fill:#1E1E1E;}
	.st1{fill:none;stroke:#3A3A3A;stroke-width:10;stroke-miterlimit:10;}
	.st2{fill:none;stroke:#D5D868;stroke-width:4;stroke-linecap:round;stroke-miterlimit:10;}
	.st3{fill:none;stroke:#69C2D6;stroke-width:4;stroke-linecap:round;stroke-miterlimit:10;}
	.st4{fill:none;stroke:#0C0C0C;stroke-miterlimit:10;}
	.st5{fill:none;stroke:#E5E5DC;stroke-width:4;stroke-linecap:round;stroke-miterlimit:10;}
	.st6{fill:none;stroke:#0C0C0C;stroke-width:10;stroke-miterlimit:10;}
	.st7{fill:#E5E5DC;}
	.st8{fill:#6F6F6F;stroke:#70706B;stroke-width:4;stroke-linecap:round;stroke-miterlimit:10;}
	.st9{fill:#6F6F6F;}
</style>
<g id="bakgrunn">
	<g>
		<rect y="0" class="st0" width="200" height="200"/>
	</g>
</g>
<g id="Layer_2">
	<line class="st1" x1="0" y1="5" x2="200" y2="5"/>
	<line class="st2" x1="9" y1="35" x2="80.5" y2="35"/>
	<line class="st3" x1="18.1" y1="50" x2="85.5" y2="50"/>
	<line class="st3" x1="18.1" y1="63" x2="103" y2="63"/>
	<line class="st3" x1="18.1" y1="78" x2="93" y2="78"/>
	<line class="st2" x1="9" y1="94" x2="80.5" y2="94"/>
	<line class="st3" x1="18.1" y1="108" x2="85.5" y2="108"/>
	<line class="st3" x1="18.1" y1="121" x2="89.7" y2="121"/>
	<line class="st2" x1="9" y1="137" x2="83.9" y2="137"/>
	<line class="st1" x1="0" y1="15" x2="40" y2="15"/>
	<line class="st4" x1="0" y1="20.5" x2="200" y2="20.5"/>
	<line class="st5" x1="5" y1="15" x2="22" y2="15"/>
	<line class="st3" x1="16.1" y1="152" x2="121.3" y2="152"/>
	<line class="st3" x1="16.1" y1="165" x2="142" y2="165"/>
	<line class="st3" x1="16.1" y1="180" x2="90" y2="180"/>
	<line class="st6" x1="40" y1="15" x2="80" y2="15"/>
	<circle class="st7" cx="35" cy="15" r="2"/>
	<line class="st8" x1="45" y1="15" x2="62" y2="15"/>
	<circle class="st9" cx="75" cy="15" r="2"/>
</g>
</svg>
