<?xml version="1.0" encoding="utf-8"?>
<!-- Generator: Adobe Illustrator 22.1.0, SVG Export Plug-In . SVG Version: 6.00 Build 0)  -->
<svg version="1.1" id="Layer_1" xmlns="http://www.w3.org/2000/svg" xmlns:xlink="http://www.w3.org/1999/xlink" x="0px" y="0px"
	 viewBox="0 0 200 200" style="enable-background:new 0 0 200 200;" xml:space="preserve">
<style type="text/css">
	.st0{fill:#E0E0E0;}
	.st1{fill-rule:evenodd;clip-rule:evenodd;fill:#29ABE2;}
	.st2{fill:#29ABE2;}
	.st3{fill:none;stroke:#666666;stroke-width:6;stroke-linecap:round;stroke-miterlimit:10;}
	.st4{fill:none;stroke:#BEBEBF;stroke-width:4;stroke-linecap:round;stroke-miterlimit:10;}
	.st5{fill:none;stroke:#BEBEBF;stroke-width:4;stroke-miterlimit:10;stroke-dasharray:12;}
	.st6{fill:none;stroke:#FFFFFF;stroke-width:2;stroke-miterlimit:10;}
</style>
<rect x="0" y="36" class="st0" width="39" height="165"/>
<rect x="161" y="36" class="st0" width="39" height="165"/>
<g>
	<path class="st1" d="M11.5,28c-0.8,0-1.5-0.7-1.5-1.5V10c0-0.8,0.7-1.5,1.5-1.5H28c0.8,0,1.5,0.7,1.5,1.5v16.5
		c0,0.8-0.7,1.5-1.5,1.5H11.5z"/>
	<path class="st2" d="M28,10v16.5H11.5V10H28 M28,7H11.5c-1.7,0-3,1.3-3,3v16.5c0,1.7,1.3,3,3,3H28c1.7,0,3-1.3,3-3V10
		C31,8.3,29.7,7,28,7L28,7z"/>
</g>
<line class="st3" x1="53" y1="67" x2="107" y2="67"/>
<line class="st4" x1="52" y1="88" x2="138" y2="88"/>
<line class="st4" x1="52" y1="103" x2="133" y2="103"/>
<line class="st4" x1="52" y1="116" x2="138" y2="116"/>
<line class="st4" x1="52" y1="131" x2="142" y2="131"/>
<line class="st4" x1="52" y1="159" x2="138" y2="159"/>
<line class="st4" x1="52" y1="174" x2="144" y2="174"/>
<line class="st4" x1="52" y1="189" x2="138" y2="189"/>
<line class="st5" x1="48" y1="26" x2="167" y2="26"/>
<line class="st6" x1="11.9" y1="13.4" x2="28" y2="13.4"/>
<line class="st6" x1="11.9" y1="23.5" x2="26.3" y2="23.5"/>
<line class="st6" x1="11.9" y1="18.5" x2="28" y2="18.5"/>
<rect x="39" y="36" class="st0" width="122" height="7"/>
</svg>
